<svg id="Layer_1" data-name="Layer 1" xmlns="http://www.w3.org/2000/svg" viewBox="0 0 145.34 168.27"><defs><style>.cls-1{fill:#fff;}.cls-2{fill:#231f20;}.cls-3{fill:none;stroke:#fff;stroke-miterlimit:10;}</style></defs><path class="cls-1" d="M329.89,405.21c3.22,3,10.18,9.68,6.11,14.41-.37.43-.81.79-1.15,1.23a8.77,8.77,0,0,1-3.78,3.32,34.58,34.58,0,0,1-5.81,1.8,108.69,108.69,0,0,1-14,2.37c-5.19.59-11.38,2-14.25-3.76-1.62-3.24-1.23-7.19.14-10.54a25.26,25.26,0,0,0,1.77-4.68c.41-2.15-.34-4.09-.11-6a4.76,4.76,0,0,1,1-2.42,13.41,13.41,0,0,1,6.32-4.14c4.22-1.36,10.92-1,14.71,1.41A67.19,67.19,0,0,1,329.89,405.21Z" transform="translate(-240.29 -281.56)"/><path class="cls-1" d="M306.33,392.73a2.92,2.92,0,0,1-2,2.53c-4,1.52-7.88-.76-11.28-2.56a33.21,33.21,0,0,0-6.93-2.77A21.83,21.83,0,0,0,268,392.55s-8.42,4.6-13,11.49c0,0-5.62,8.68-10.47,0,0,0-3.06-9.19,5.24-18.64,0,0,14.17-19.14,21.57-11.74,3.84,2.32,7.81,4.44,11.81,6.46,3.73,1.89,7.53,3.67,11.39,5.26,3.56,1.47,8.79,2.14,11.09,5.48A3.44,3.44,0,0,1,306.33,392.73Z" transform="translate(-240.29 -281.56)"/><path class="cls-1" d="M314.49,312.89s10.72,4.6,4.34,8.94c0,0-26.81,19.66-35.49,24.26,0,0-4.34,2.8-7.15-1.79C276.19,344.3,274.91,312.64,314.49,312.89Z" transform="translate(-240.29 -281.56)"/><path class="cls-2" d="M320.86,398.22c-3.79-2.42-10.49-2.77-14.71-1.41a13.41,13.41,0,0,0-6.32,4.14,4.76,4.76,0,0,0-1,2.42c-.23,1.9.52,3.84.11,6a25.26,25.26,0,0,1-1.77,4.68c-1.37,3.35-1.76,7.3-.14,10.54,2.87,5.74,9.06,4.35,14.25,3.76a108.69,108.69,0,0,0,14-2.37,34.58,34.58,0,0,0,5.81-1.8,8.77,8.77,0,0,0,3.78-3.32c.34-.44.78-.8,1.15-1.23,4.07-4.73-2.89-11.46-6.11-14.41A67.19,67.19,0,0,0,320.86,398.22Zm-37.52-52.13c8.68-4.6,35.49-24.26,35.49-24.26,6.38-4.34-4.34-8.94-4.34-8.94-39.58-.25-38.3,31.41-38.3,31.41C279,348.89,283.34,346.09,283.34,346.09Zm-40.22,46.25c1.62-4.48,3.38-9,6.4-12.71,4.12-5,10.35-8.17,13.78-13.69a6.46,6.46,0,0,0,1.2-3.86,9.13,9.13,0,0,0-1.1-3.07c-8.11-17.14,3.18-35.85,14.67-48.22a121.86,121.86,0,0,1,23.65-19.85c42.9-27.32,68.68,17.1,68.68,17.1.3.51,5.36.88,6.2,1.41a3.05,3.05,0,0,1,1.5,3.2c-.46.07-6.34,1.21-6.42,1,1.28,3.32-1.53,13.27-1.53,13.27-12.26,19.65-24,27.58-24,27.58-8.33,6.67-25.51,9-29.74-3.87a15.37,15.37,0,0,1,.5-10.52c.48-1.17,7.94-13,3.56-13.2-3.07-.16-6.89,2.65-9.38,4.14-2.21,1.33-4.34,2.77-6.49,4.19-4,2.63-7.81,5.38-11.61,8.21-1.65,1.22-3.39,2.39-5.06,3.64a25.42,25.42,0,0,0-7.14,7.29c-1.76,3-1.86,6.09.32,8.83,4.76,6,12.64,9.88,19.3,13.32,4.52,2.32,9.13,4.51,13.82,6.44,6.3,2.58,14.22-3,19.18-6.2a174.64,174.64,0,0,0,17.53-13c10.85-9.18,20.45-20,27.1-32.65,2.37-4.5,1.89-7.36,1.33-12.08-.34-2.95.31-5.21,3.81-4.44,3.77.83,1.11,6.41,0,8.46-7.4,27.06-40.85,50.8-40.85,50.8-21.7,14.3-7.41,17.88-7.41,17.88,31.66,8.93,29.62,29.15,29.62,29.15-6.64,31.21-66.89,28.29-66.89,28.29-15.29.77-31.88-2.7-42.2-14.86-2-2.39-4.46-5.2-5.38-8.24-.86-2.85-.34-5.94-1.32-8.77-1.4-4.05-5.41-6.45-7.07-10.35C239.67,402.29,241.47,396.88,243.12,392.34Zm6.65-6.94c-8.3,9.45-5.24,18.64-5.24,18.64,4.85,8.68,10.47,0,10.47,0,4.6-6.89,13-11.49,13-11.49a21.83,21.83,0,0,1,18.08-2.62A33.21,33.21,0,0,1,293,392.7c3.4,1.8,7.27,4.08,11.28,2.56a2.92,2.92,0,0,0,2-2.53,3.44,3.44,0,0,0-.7-1.87c-2.3-3.34-7.53-4-11.09-5.48-3.86-1.59-7.66-3.37-11.39-5.26-4-2-8-4.14-11.81-6.46C263.94,366.26,249.77,385.4,249.77,385.4Z" transform="translate(-240.29 -281.56)"/><path class="cls-3" d="M287.93,347.1c1.67-1.25,3.41-2.42,5.06-3.64,3.8-2.83,7.66-5.58,11.61-8.21,2.15-1.42,4.28-2.86,6.49-4.19,2.49-1.49,6.31-4.3,9.38-4.14,4.38.22-3.08,12-3.56,13.2a15.37,15.37,0,0,0-.5,10.52c4.23,12.84,21.41,10.54,29.74,3.87,0,0,11.74-7.93,24-27.58,0,0,2.81-9.95,1.53-13.27.08.2,6-.94,6.42-1a3.05,3.05,0,0,0-1.5-3.2c-.84-.53-5.9-.9-6.2-1.41,0,0-25.78-44.42-68.68-17.1a121.86,121.86,0,0,0-23.65,19.85c-11.49,12.37-22.78,31.08-14.67,48.22a9.13,9.13,0,0,1,1.1,3.07,6.46,6.46,0,0,1-1.2,3.86c-3.43,5.52-9.66,8.67-13.78,13.69-3,3.69-4.78,8.23-6.4,12.71s-3.45,10-1.45,14.67c1.66,3.9,5.67,6.3,7.07,10.35,1,2.83.46,5.92,1.32,8.77.92,3,3.35,5.85,5.38,8.24,10.32,12.16,26.91,15.63,42.2,14.86,0,0,60.25,2.92,66.89-28.29,0,0,2-20.22-29.62-29.15,0,0-14.29-3.58,7.41-17.88,0,0,33.45-23.74,40.85-50.8,1.12-2.05,3.78-7.63,0-8.46-3.5-.77-4.15,1.49-3.81,4.44.56,4.72,1,7.58-1.33,12.08-6.65,12.63-16.25,23.47-27.1,32.65a174.64,174.64,0,0,1-17.53,13c-5,3.24-12.88,8.78-19.18,6.2-4.69-1.93-9.3-4.12-13.82-6.44-6.66-3.44-14.54-7.32-19.3-13.32-2.18-2.74-2.08-5.84-.32-8.83A25.42,25.42,0,0,1,287.93,347.1Z" transform="translate(-240.29 -281.56)"/><path class="cls-3" d="M276.19,344.3s-1.28-31.66,38.3-31.41c0,0,10.72,4.6,4.34,8.94,0,0-26.81,19.66-35.49,24.26C283.34,346.09,279,348.89,276.19,344.3Z" transform="translate(-240.29 -281.56)"/><path class="cls-3" d="M255,404s-5.62,8.68-10.47,0c0,0-3.06-9.19,5.24-18.64,0,0,14.17-19.14,21.57-11.74,3.84,2.32,7.81,4.44,11.81,6.46,3.73,1.89,7.53,3.67,11.39,5.26,3.56,1.47,8.79,2.14,11.09,5.48a3.44,3.44,0,0,1,.7,1.87,2.92,2.92,0,0,1-2,2.53c-4,1.52-7.88-.76-11.28-2.56a33.21,33.21,0,0,0-6.93-2.77A21.83,21.83,0,0,0,268,392.55S259.6,397.15,255,404Z" transform="translate(-240.29 -281.56)"/><path class="cls-3" d="M298.82,403.37a4.76,4.76,0,0,1,1-2.42,13.41,13.41,0,0,1,6.32-4.14c4.22-1.36,10.92-1,14.71,1.41a67.19,67.19,0,0,1,9,7c3.22,3,10.18,9.68,6.11,14.41-.37.43-.81.79-1.15,1.23a8.77,8.77,0,0,1-3.78,3.32,34.58,34.58,0,0,1-5.81,1.8,108.69,108.69,0,0,1-14,2.37c-5.19.59-11.38,2-14.25-3.76-1.62-3.24-1.23-7.19.14-10.54a25.26,25.26,0,0,0,1.77-4.68C299.34,407.21,298.59,405.27,298.82,403.37Z" transform="translate(-240.29 -281.56)"/></svg>